<?xml version="1.0" standalone="no"?>
<!DOCTYPE svg PUBLIC "-//W3C//DTD SVG 20010904//EN"
 "http://www.w3.org/TR/2001/REC-SVG-20010904/DTD/svg10.dtd">
<svg version="1.0" xmlns="http://www.w3.org/2000/svg"
 width="500.000000pt" height="500.000000pt" viewBox="0 0 500.000000 500.000000"
 preserveAspectRatio="xMidYMid meet">

<g transform="translate(0.000000,500.000000) scale(0.100000,-0.100000)"
fill="#000000" stroke="none">
<path d="M821 3206 c-9 -10 -8 -16 3 -25 23 -19 61 -10 64 17 3 18 -1 22 -26
22 -16 0 -35 -6 -41 -14z"/>
<path d="M197 3203 c-4 -3 -7 -15 -7 -27 0 -11 -12 -33 -27 -49 -28 -28 -28
-29 -8 -43 20 -15 61 -12 98 8 22 11 22 60 1 93 -16 24 -43 33 -57 18z"/>
<path d="M742 3198 c-7 -7 -12 -25 -12 -40 0 -16 -7 -39 -15 -52 -14 -20 -14
-25 -1 -35 19 -16 75 0 100 28 22 24 12 65 -21 91 -30 23 -35 24 -51 8z"/>
<path d="M282 3178 c3 -27 41 -36 64 -17 21 17 -1 39 -38 39 -25 0 -29 -4 -26
-22z"/>
<path d="M872 3147 c-13 -15 -4 -31 21 -40 22 -8 57 8 57 27 0 26 -60 36 -78
13z"/>
<path d="M313 3114 c-7 -19 21 -44 49 -44 24 0 34 26 18 45 -17 20 -59 19 -67
-1z"/>
<path d="M852 3068 c4 -28 52 -48 70 -30 19 19 -3 46 -41 50 -29 3 -32 1 -29
-20z"/>
<path d="M280 3050 c0 -22 43 -55 60 -45 14 8 13 38 -2 53 -20 20 -58 15 -58
-8z"/>
<path d="M206 3051 c-16 -25 28 -67 54 -51 11 7 12 14 2 34 -11 26 -45 35 -56
17z"/>
<path d="M780 3040 c0 -26 45 -49 63 -31 17 17 -4 45 -37 49 -21 3 -26 -1 -26
-18z"/>
<path d="M1163 2873 c-7 -3 -13 -15 -13 -28 0 -13 -12 -37 -26 -54 -31 -37
-25 -51 24 -51 68 0 101 46 72 100 -12 23 -40 39 -57 33z"/>
<path d="M1242 2857 c-21 -25 18 -52 51 -35 21 11 22 34 1 42 -24 9 -41 7 -52
-7z"/>
<path d="M1795 2836 c-19 -14 -19 -16 -3 -32 15 -15 21 -16 43 -6 17 8 25 19
23 30 -4 22 -38 27 -63 8z"/>
<path d="M1713 2823 c-8 -3 -13 -22 -13 -44 0 -22 -6 -48 -12 -59 -21 -33 2
-46 52 -31 49 15 69 48 52 86 -12 26 -59 55 -79 48z"/>
<path d="M1273 2784 c-7 -19 21 -44 49 -44 24 0 34 26 18 45 -17 20 -59 19
-67 -1z"/>
<path d="M1853 2783 c-7 -2 -13 -13 -13 -24 0 -23 44 -36 65 -19 36 30 -4 63
-52 43z"/>
<path d="M4272 2741 c-20 -12 -10 -46 13 -46 14 0 20 7 20 24 0 27 -13 35 -33
22z"/>
<path d="M1243 2725 c-7 -19 24 -55 47 -55 27 0 32 28 10 50 -24 24 -48 26
-57 5z"/>
<path d="M1167 2716 c-7 -18 20 -56 39 -56 23 0 28 29 9 50 -21 23 -41 26 -48
6z"/>
<path d="M1827 2713 c-11 -10 -8 -20 9 -37 19 -20 60 -21 67 -2 11 28 -54 61
-76 39z"/>
<path d="M3926 2693 c-4 -9 0 -23 9 -32 13 -14 17 -14 31 1 9 9 14 24 11 32
-8 21 -43 20 -51 -1z"/>
<path d="M1763 2679 c-23 -23 18 -65 51 -53 23 9 20 30 -6 48 -27 19 -31 19
-45 5z"/>
<path d="M4140 2636 c-27 -33 18 -72 48 -42 13 13 14 20 6 34 -15 23 -38 26
-54 8z"/>
<path d="M2160 2421 c-5 -11 -10 -26 -10 -34 0 -8 -9 -22 -20 -32 -11 -10 -20
-24 -20 -31 0 -36 113 -21 125 17 8 23 -2 58 -23 82 -20 22 -39 22 -52 -2z"/>
<path d="M2245 2420 c-4 -7 0 -19 8 -27 21 -21 70 -9 65 15 -4 20 -62 29 -73
12z"/>
<path d="M2277 2354 c-10 -11 11 -41 32 -47 11 -3 28 1 38 8 15 11 15 15 4 29
-13 16 -62 22 -74 10z"/>
<path d="M2245 2290 c-9 -15 41 -61 59 -54 19 7 21 35 4 52 -15 15 -54 16 -63
2z"/>
<path d="M2170 2271 c0 -11 10 -27 22 -35 19 -14 24 -14 36 -2 11 11 11 18 3
35 -15 28 -61 29 -61 2z"/>
</g>
</svg>
